<mxfile host="app.diagrams.net" modified="2025-01-29T19:39:37.928Z" agent="Mozilla/5.0 (Macintosh; Intel Mac OS X 10_15_7) AppleWebKit/537.36 (KHTML, like Gecko) Chrome/131.0.0.0 Safari/537.36" etag="S1UIH_Z2GKqBHVTwdUwU" version="24.2.2" type="device">
  <diagram name="Sayfa -1" id="yi_KK9CQvoAe99kx9bwV">
    <mxGraphModel dx="964" dy="506" grid="1" gridSize="10" guides="1" tooltips="1" connect="1" arrows="1" fold="1" page="1" pageScale="1" pageWidth="827" pageHeight="1169" math="0" shadow="0">
      <root>
        <mxCell id="0" />
        <mxCell id="1" parent="0" />
        <mxCell id="n-nDPSfvx1oCkASUtknA-3" value="&lt;p style=&quot;margin:0px;margin-top:4px;text-align:center;&quot;&gt;&lt;b&gt;Doctor&lt;/b&gt;&lt;/p&gt;&lt;hr size=&quot;1&quot; style=&quot;border-style:solid;&quot;&gt;&lt;p style=&quot;margin:0px;margin-left:4px;&quot;&gt;doctor_id (PK)&lt;br&gt;name&lt;br&gt;specialty&lt;br&gt;email&lt;br&gt;phone&lt;br&gt;&lt;span class=&quot;hljs-selector-tag&quot;&gt;address&lt;/span&gt;&lt;br&gt;available_times&lt;br&gt;approved (Boolean)&lt;/p&gt;&lt;hr size=&quot;1&quot; style=&quot;border-style:solid;&quot;&gt;&lt;p style=&quot;margin:0px;margin-left:4px;&quot;&gt;&lt;br&gt;&lt;/p&gt;" style="verticalAlign=top;align=left;overflow=fill;html=1;whiteSpace=wrap;" vertex="1" parent="1">
          <mxGeometry x="20" width="220" height="150" as="geometry" />
        </mxCell>
        <mxCell id="n-nDPSfvx1oCkASUtknA-22" value="Patient" style="swimlane;fontStyle=0;childLayout=stackLayout;horizontal=1;startSize=26;fillColor=none;horizontalStack=0;resizeParent=1;resizeParentMax=0;resizeLast=0;collapsible=1;marginBottom=0;whiteSpace=wrap;html=1;" vertex="1" parent="1">
          <mxGeometry x="380" y="230" width="150" height="130" as="geometry" />
        </mxCell>
        <mxCell id="n-nDPSfvx1oCkASUtknA-24" value="doctor_id (PK)&lt;br&gt;name&lt;br&gt;email&lt;br&gt;phone&lt;br&gt;history" style="text;strokeColor=none;fillColor=none;align=left;verticalAlign=top;spacingLeft=4;spacingRight=4;overflow=hidden;rotatable=0;points=[[0,0.5],[1,0.5]];portConstraint=eastwest;whiteSpace=wrap;html=1;" vertex="1" parent="n-nDPSfvx1oCkASUtknA-22">
          <mxGeometry y="26" width="150" height="104" as="geometry" />
        </mxCell>
        <mxCell id="n-nDPSfvx1oCkASUtknA-26" value="Appointment" style="swimlane;fontStyle=0;childLayout=stackLayout;horizontal=1;startSize=26;fillColor=none;horizontalStack=0;resizeParent=1;resizeParentMax=0;resizeLast=0;collapsible=1;marginBottom=0;whiteSpace=wrap;html=1;" vertex="1" parent="1">
          <mxGeometry x="490" width="170" height="140" as="geometry" />
        </mxCell>
        <mxCell id="n-nDPSfvx1oCkASUtknA-27" value="appointment_id (PK)&amp;nbsp;&amp;nbsp;" style="text;strokeColor=none;fillColor=none;align=left;verticalAlign=top;spacingLeft=4;spacingRight=4;overflow=hidden;rotatable=0;points=[[0,0.5],[1,0.5]];portConstraint=eastwest;whiteSpace=wrap;html=1;" vertex="1" parent="n-nDPSfvx1oCkASUtknA-26">
          <mxGeometry y="26" width="170" height="26" as="geometry" />
        </mxCell>
        <mxCell id="n-nDPSfvx1oCkASUtknA-28" value="doctor_id (FK)" style="text;strokeColor=none;fillColor=none;align=left;verticalAlign=top;spacingLeft=4;spacingRight=4;overflow=hidden;rotatable=0;points=[[0,0.5],[1,0.5]];portConstraint=eastwest;whiteSpace=wrap;html=1;" vertex="1" parent="n-nDPSfvx1oCkASUtknA-26">
          <mxGeometry y="52" width="170" height="26" as="geometry" />
        </mxCell>
        <mxCell id="n-nDPSfvx1oCkASUtknA-29" value="patient_id (FK)&lt;div&gt;date&lt;/div&gt;&lt;div&gt;status&lt;br&gt;&lt;div&gt;&lt;br&gt;&lt;/div&gt;&lt;/div&gt;" style="text;strokeColor=none;fillColor=none;align=left;verticalAlign=top;spacingLeft=4;spacingRight=4;overflow=hidden;rotatable=0;points=[[0,0.5],[1,0.5]];portConstraint=eastwest;whiteSpace=wrap;html=1;" vertex="1" parent="n-nDPSfvx1oCkASUtknA-26">
          <mxGeometry y="78" width="170" height="62" as="geometry" />
        </mxCell>
        <mxCell id="n-nDPSfvx1oCkASUtknA-30" value="Review" style="swimlane;fontStyle=0;childLayout=stackLayout;horizontal=1;startSize=26;fillColor=none;horizontalStack=0;resizeParent=1;resizeParentMax=0;resizeLast=0;collapsible=1;marginBottom=0;whiteSpace=wrap;html=1;" vertex="1" parent="1">
          <mxGeometry x="690" width="140" height="150" as="geometry" />
        </mxCell>
        <mxCell id="n-nDPSfvx1oCkASUtknA-31" value="review_id (PK)" style="text;strokeColor=none;fillColor=none;align=left;verticalAlign=top;spacingLeft=4;spacingRight=4;overflow=hidden;rotatable=0;points=[[0,0.5],[1,0.5]];portConstraint=eastwest;whiteSpace=wrap;html=1;" vertex="1" parent="n-nDPSfvx1oCkASUtknA-30">
          <mxGeometry y="26" width="140" height="26" as="geometry" />
        </mxCell>
        <mxCell id="n-nDPSfvx1oCkASUtknA-32" value="doctor_id (FK)" style="text;strokeColor=none;fillColor=none;align=left;verticalAlign=top;spacingLeft=4;spacingRight=4;overflow=hidden;rotatable=0;points=[[0,0.5],[1,0.5]];portConstraint=eastwest;whiteSpace=wrap;html=1;" vertex="1" parent="n-nDPSfvx1oCkASUtknA-30">
          <mxGeometry y="52" width="140" height="26" as="geometry" />
        </mxCell>
        <mxCell id="n-nDPSfvx1oCkASUtknA-33" value="patient_id (FK)&lt;div&gt;rating&lt;/div&gt;&lt;div&gt;comment&amp;nbsp;&lt;/div&gt;" style="text;strokeColor=none;fillColor=none;align=left;verticalAlign=top;spacingLeft=4;spacingRight=4;overflow=hidden;rotatable=0;points=[[0,0.5],[1,0.5]];portConstraint=eastwest;whiteSpace=wrap;html=1;" vertex="1" parent="n-nDPSfvx1oCkASUtknA-30">
          <mxGeometry y="78" width="140" height="72" as="geometry" />
        </mxCell>
        <mxCell id="n-nDPSfvx1oCkASUtknA-34" value="" style="ellipse;html=1;shape=startState;fillColor=#000000;strokeColor=#ff0000;" vertex="1" parent="1">
          <mxGeometry x="110" y="260" width="30" height="30" as="geometry" />
        </mxCell>
        <mxCell id="n-nDPSfvx1oCkASUtknA-35" value="" style="edgeStyle=orthogonalEdgeStyle;html=1;verticalAlign=bottom;endArrow=open;endSize=8;strokeColor=#ff0000;rounded=0;entryX=0.218;entryY=1.016;entryDx=0;entryDy=0;entryPerimeter=0;" edge="1" source="n-nDPSfvx1oCkASUtknA-34" parent="1" target="n-nDPSfvx1oCkASUtknA-29">
          <mxGeometry relative="1" as="geometry">
            <mxPoint x="125" y="350" as="targetPoint" />
          </mxGeometry>
        </mxCell>
        <mxCell id="n-nDPSfvx1oCkASUtknA-38" style="edgeStyle=orthogonalEdgeStyle;rounded=0;orthogonalLoop=1;jettySize=auto;html=1;entryX=0.012;entryY=0.923;entryDx=0;entryDy=0;entryPerimeter=0;" edge="1" parent="1" source="n-nDPSfvx1oCkASUtknA-3" target="n-nDPSfvx1oCkASUtknA-28">
          <mxGeometry relative="1" as="geometry" />
        </mxCell>
        <mxCell id="n-nDPSfvx1oCkASUtknA-40" style="edgeStyle=orthogonalEdgeStyle;rounded=0;orthogonalLoop=1;jettySize=auto;html=1;entryX=0.553;entryY=1;entryDx=0;entryDy=0;entryPerimeter=0;" edge="1" parent="1" source="n-nDPSfvx1oCkASUtknA-24" target="n-nDPSfvx1oCkASUtknA-29">
          <mxGeometry relative="1" as="geometry" />
        </mxCell>
        <mxCell id="n-nDPSfvx1oCkASUtknA-41" style="edgeStyle=orthogonalEdgeStyle;rounded=0;orthogonalLoop=1;jettySize=auto;html=1;entryX=0.55;entryY=1;entryDx=0;entryDy=0;entryPerimeter=0;" edge="1" parent="1" source="n-nDPSfvx1oCkASUtknA-24" target="n-nDPSfvx1oCkASUtknA-33">
          <mxGeometry relative="1" as="geometry" />
        </mxCell>
        <mxCell id="n-nDPSfvx1oCkASUtknA-42" style="edgeStyle=orthogonalEdgeStyle;rounded=0;orthogonalLoop=1;jettySize=auto;html=1;" edge="1" parent="1" source="n-nDPSfvx1oCkASUtknA-3">
          <mxGeometry relative="1" as="geometry">
            <mxPoint x="720" y="150" as="targetPoint" />
            <Array as="points">
              <mxPoint x="130" y="180" />
              <mxPoint x="720" y="180" />
              <mxPoint x="720" y="153" />
            </Array>
          </mxGeometry>
        </mxCell>
      </root>
    </mxGraphModel>
  </diagram>
</mxfile>
